<svg width="405.064" height="58.345" viewBox="0 0 405.064 58.345" xmlns="http://www.w3.org/2000/svg"><g id="svgGroup" stroke-linecap="round" fill-rule="evenodd" font-size="9pt" stroke="#ffffff" stroke-width="0.5mm" fill="#000" style="stroke:#ffffff;stroke-width:0.5mm;fill:#000"><path d="M 168.096 39.888 A 34.395 34.395 0 0 0 168.199 39.731 Q 168.524 39.239 168.948 38.561 A 108.123 108.123 0 0 0 169.292 38.008 A 265.674 265.674 0 0 1 170.036 36.812 A 316.852 316.852 0 0 1 170.83 35.547 Q 171.651 34.248 172.556 32.932 A 32.841 32.841 0 0 1 173.346 31.833 A 26.088 26.088 0 0 1 174.351 30.574 Q 174.823 30.02 175.28 29.572 A 10.45 10.45 0 0 1 176.077 28.865 A 5.491 5.491 0 0 1 176.142 28.814 Q 176.628 28.439 177.05 28.292 A 1.566 1.566 0 0 1 177.564 28.198 Q 177.871 28.198 178.111 28.271 A 1.132 1.132 0 0 1 178.521 28.489 A 0.684 0.684 0 0 1 178.669 28.672 Q 178.802 28.903 178.844 29.304 A 3.885 3.885 0 0 1 178.862 29.702 Q 178.862 30.267 178.684 31.083 A 14.453 14.453 0 0 1 178.486 31.873 A 9.902 9.902 0 0 1 178.47 31.933 Q 178.089 33.268 177.119 35.274 Q 176.436 36.641 175.65 38.076 A 66.051 66.051 0 0 1 173.992 40.93 A 88.254 88.254 0 0 1 172.232 43.682 A 73.766 73.766 0 0 1 171.68 44.498 A 63.09 63.09 0 0 1 170.488 46.177 L 166.489 51.68 L 169.497 52.91 A 24.665 24.665 0 0 0 169.615 52.762 Q 169.794 52.535 169.991 52.274 A 45.212 45.212 0 0 0 170.42 51.697 A 110.49 110.49 0 0 1 170.95 50.979 A 129.223 129.223 0 0 1 171.514 50.227 A 184.217 184.217 0 0 0 172.676 48.672 Q 173.257 47.886 173.838 47.134 A 339.368 339.368 0 0 0 174.172 46.696 A 375.154 375.154 0 0 0 176.572 43.511 A 208.958 208.958 0 0 1 178.944 40.439 A 152.548 152.548 0 0 1 181.135 37.717 A 79.232 79.232 0 0 1 181.72 37.017 Q 182.588 35.991 183.397 35.107 A 43.862 43.862 0 0 1 185.015 33.428 Q 186.792 31.685 188.228 30.779 Q 189.102 30.227 189.85 30.011 A 3.277 3.277 0 0 1 190.757 29.873 Q 191.782 29.873 192.346 30.591 A 2.544 2.544 0 0 1 192.806 31.521 A 3.294 3.294 0 0 1 192.91 32.368 A 3.477 3.477 0 0 1 192.847 33.007 Q 192.78 33.367 192.64 33.77 A 8.35 8.35 0 0 1 192.312 34.573 A 27.948 27.948 0 0 1 191.641 35.91 A 38.348 38.348 0 0 1 190.825 37.359 A 95.001 95.001 0 0 1 190.135 38.508 A 113.654 113.654 0 0 1 188.877 40.52 Q 187.818 42.178 186.929 43.818 A 30.729 30.729 0 0 0 186.402 44.836 A 25.913 25.913 0 0 0 185.442 47.014 Q 185.157 47.755 185.008 48.446 A 6.897 6.897 0 0 0 184.844 49.902 A 3.987 3.987 0 0 0 185.152 51.458 A 4.094 4.094 0 0 0 185.989 52.739 A 3.543 3.543 0 0 0 186.231 52.967 A 3.799 3.799 0 0 0 187.271 53.594 Q 188.023 53.901 188.945 53.901 A 5.75 5.75 0 0 0 190.548 53.671 A 7.098 7.098 0 0 0 192.141 52.979 A 15.166 15.166 0 0 0 193.321 52.217 A 18.06 18.06 0 0 0 195.235 50.637 Q 196.738 49.219 198.054 47.527 A 72.324 72.324 0 0 0 199.005 46.277 A 59.559 59.559 0 0 0 200.43 44.28 Q 201.092 43.308 201.621 42.469 A 39.635 39.635 0 0 0 202.207 41.511 A 125.033 125.033 0 0 1 202.45 41.102 Q 202.974 40.224 203.198 39.888 L 201.968 38.931 A 104.817 104.817 0 0 1 200.558 41.041 A 129.538 129.538 0 0 1 198.994 43.272 A 71.877 71.877 0 0 1 198.16 44.412 A 62.213 62.213 0 0 1 195.696 47.51 Q 194.038 49.458 192.432 50.74 A 8.394 8.394 0 0 1 191.55 51.361 Q 191.065 51.655 190.61 51.818 A 3.203 3.203 0 0 1 189.527 52.022 A 1.144 1.144 0 0 1 189.169 51.965 A 1.253 1.253 0 0 1 188.775 51.748 A 0.657 0.657 0 0 1 188.673 51.646 Q 188.433 51.347 188.433 50.689 A 4.312 4.312 0 0 1 188.444 50.379 Q 188.509 49.478 188.945 48.416 A 19.466 19.466 0 0 1 189.446 47.301 A 24.626 24.626 0 0 1 190.244 45.801 A 136.099 136.099 0 0 1 190.644 45.111 A 154.837 154.837 0 0 1 191.919 42.964 Q 192.808 41.494 193.594 39.973 A 23.89 23.89 0 0 0 193.739 39.688 A 21.578 21.578 0 0 0 194.893 36.931 A 10.586 10.586 0 0 0 195.067 36.363 A 9.087 9.087 0 0 0 195.405 33.941 A 10.944 10.944 0 0 0 195.379 33.166 Q 195.287 31.874 194.876 30.984 A 7.573 7.573 0 0 0 194.811 30.847 Q 194.58 30.375 194.31 29.991 A 4.395 4.395 0 0 0 193.594 29.19 A 4.883 4.883 0 0 0 193.212 28.891 A 3.991 3.991 0 0 0 191.987 28.301 A 8.297 8.297 0 0 0 191.685 28.222 Q 191.36 28.144 191.068 28.104 A 4.312 4.312 0 0 0 190.484 28.062 Q 189.732 28.062 188.809 28.301 A 6.978 6.978 0 0 0 188.612 28.355 Q 188.182 28.48 187.716 28.673 A 12.239 12.239 0 0 0 186.792 29.104 Q 185.698 29.668 184.4 30.625 Q 183.669 31.163 182.873 31.864 A 33.69 33.69 0 0 0 181.597 33.052 A 9.872 9.872 0 0 0 181.687 32.578 A 8.488 8.488 0 0 0 181.802 31.206 A 8.216 8.216 0 0 0 181.802 31.173 Q 181.8 30.658 181.733 30.201 A 5.012 5.012 0 0 0 181.494 29.224 A 5.135 5.135 0 0 0 181.28 28.715 A 4.16 4.16 0 0 0 180.657 27.771 Q 180.127 27.173 179.426 26.865 A 3.577 3.577 0 0 0 177.974 26.558 A 4.183 4.183 0 0 0 176.652 26.77 A 4.851 4.851 0 0 0 175.325 27.464 Q 174.077 28.369 172.761 30.01 A 29.22 29.22 0 0 0 172.483 30.363 Q 171.876 31.143 171.249 32.056 A 49.964 49.964 0 0 0 170.027 33.923 A 536.689 536.689 0 0 1 168.527 36.312 A 714.203 714.203 0 0 1 166.865 38.931 A 1473.153 1473.153 0 0 0 166.546 39.432 Q 166.173 40.019 165.703 40.759 A 46.762 46.762 0 0 1 165.169 41.581 A 56.526 56.526 0 0 1 164.182 43.015 Q 163.345 44.194 162.388 45.357 A 22.773 22.773 0 0 1 161.906 45.923 A 19.664 19.664 0 0 1 160.423 47.442 Q 159.414 48.364 158.372 48.945 A 5.063 5.063 0 0 1 157.565 49.311 A 3.734 3.734 0 0 1 156.338 49.526 A 2.793 2.793 0 0 1 156.265 49.526 Q 156.014 49.519 155.798 49.467 A 1.527 1.527 0 0 1 155.227 49.202 Q 154.893 48.948 154.82 48.225 A 4.415 4.415 0 0 1 154.8 47.783 A 5.945 5.945 0 0 1 154.847 47.064 Q 154.952 46.201 155.296 45.1 A 30.883 30.883 0 0 1 155.782 43.67 A 39.242 39.242 0 0 1 156.56 41.716 A 63.514 63.514 0 0 1 156.955 40.814 A 70.972 70.972 0 0 1 158.269 38.042 Q 159.209 36.162 160.132 34.436 Q 161.055 32.71 161.858 31.275 Q 162.661 29.839 163.106 28.95 L 162.012 28.472 A 896.085 896.085 0 0 0 160.474 30.215 A 47.586 47.586 0 0 0 159.038 31.924 A 5.976 5.976 0 0 0 158.866 31.156 A 4.223 4.223 0 0 0 157.09 28.728 A 4.377 4.377 0 0 0 156.969 28.652 Q 155.861 27.984 154.071 27.778 A 15.186 15.186 0 0 0 152.339 27.686 A 9.296 9.296 0 0 0 151.984 27.693 Q 151.338 27.717 150.618 27.83 A 16.685 16.685 0 0 0 149.16 28.13 A 14.426 14.426 0 0 0 147.336 28.724 A 19.345 19.345 0 0 0 145.418 29.617 A 20.058 20.058 0 0 0 143.56 30.741 A 26.202 26.202 0 0 0 141.419 32.368 A 22.327 22.327 0 0 0 139.607 34.078 A 28.5 28.5 0 0 0 137.505 36.572 A 29.49 29.49 0 0 0 136.746 37.609 Q 135.96 38.736 135.387 39.8 A 15.049 15.049 0 0 0 134.412 41.99 A 20.404 20.404 0 0 0 134.131 42.859 Q 133.54 44.846 133.54 46.45 A 8.565 8.565 0 0 0 133.635 47.754 A 6.332 6.332 0 0 0 134.036 49.219 A 6.628 6.628 0 0 0 134.17 49.521 A 5.649 5.649 0 0 0 135.403 51.235 A 5.94 5.94 0 0 0 137.42 52.483 A 6.581 6.581 0 0 0 137.745 52.595 A 7.017 7.017 0 0 0 139.863 52.91 A 9.884 9.884 0 0 0 140.803 52.865 A 11.828 11.828 0 0 0 142.444 52.586 A 9.54 9.54 0 0 0 143.82 52.137 A 12.598 12.598 0 0 0 145.247 51.441 Q 146.699 50.62 148.255 49.219 A 20.464 20.464 0 0 0 148.695 48.81 Q 150.05 47.514 151.519 45.664 Q 151.472 45.852 151.449 46.129 A 6.028 6.028 0 0 0 151.433 46.399 A 68.991 68.991 0 0 0 151.428 46.557 Q 151.416 46.886 151.416 46.997 Q 151.416 47.789 151.574 48.462 A 4.383 4.383 0 0 0 152.373 50.176 A 2.875 2.875 0 0 0 153.005 50.775 Q 153.526 51.138 154.233 51.292 A 5.388 5.388 0 0 0 155.381 51.406 Q 156.782 51.406 158.115 50.859 A 10.581 10.581 0 0 0 158.282 50.79 A 11.315 11.315 0 0 0 160.662 49.39 Q 161.875 48.467 162.969 47.271 Q 164.063 46.074 165.003 44.793 A 43.81 43.81 0 0 0 165.235 44.472 A 39.707 39.707 0 0 0 166.729 42.246 Q 167.515 40.982 168.096 39.888 L 166.865 38.931 L 168.096 39.888 Z M 268.174 38.931 A 27.904 27.904 0 0 0 268.024 39.128 Q 267.632 39.647 266.738 40.862 Q 266.055 41.791 265.098 42.901 A 57.878 57.878 0 0 1 263.85 44.297 A 52.535 52.535 0 0 1 261.898 46.301 A 71.577 71.577 0 0 1 259.629 48.416 A 33.875 33.875 0 0 1 259.013 48.954 A 37.223 37.223 0 0 1 254.229 52.398 A 29.858 29.858 0 0 1 253.761 52.677 A 32.272 32.272 0 0 1 247.752 55.388 A 21.978 21.978 0 0 1 247.642 55.425 A 23.066 23.066 0 0 1 240.352 56.568 A 29.551 29.551 0 0 1 239.915 56.564 Q 236.664 56.516 234.148 55.747 A 14.628 14.628 0 0 1 232.188 54.997 A 11.133 11.133 0 0 1 229.671 53.389 A 9.784 9.784 0 0 1 226.97 49.68 A 11.261 11.261 0 0 1 226.335 47.605 A 13.865 13.865 0 0 1 226.065 44.81 Q 226.065 41.494 227.398 38.504 A 17.215 17.215 0 0 1 231.072 33.206 A 17.668 17.668 0 0 1 232.298 32.106 A 19.42 19.42 0 0 1 236.643 29.446 A 19.801 19.801 0 0 1 238.083 28.865 A 21.66 21.66 0 0 1 243.667 27.686 Q 244.556 28.95 245.667 29.993 Q 246.777 31.035 247.991 31.77 A 11.557 11.557 0 0 0 250.503 32.915 A 9.522 9.522 0 0 0 251.148 33.095 A 8.057 8.057 0 0 0 253.032 33.325 A 5.473 5.473 0 0 0 254.156 33.216 A 3.861 3.861 0 0 0 255.596 32.608 Q 256.621 31.89 256.621 30.523 A 2.993 2.993 0 0 0 255.767 28.369 Q 255.258 27.84 254.518 27.426 A 8.064 8.064 0 0 0 253.408 26.917 Q 252.562 26.599 251.543 26.374 A 20.209 20.209 0 0 0 249.854 26.079 A 37.838 37.838 0 0 0 248.272 25.903 A 46.11 46.11 0 0 0 245.444 25.737 A 9.886 9.886 0 0 1 244.693 21.909 A 10.84 10.84 0 0 1 244.719 21.153 A 11.679 11.679 0 0 1 245.444 17.876 A 14.856 14.856 0 0 1 245.748 17.125 A 16.31 16.31 0 0 1 247.564 13.997 A 18.701 18.701 0 0 1 247.913 13.535 A 20.323 20.323 0 0 1 250.811 10.545 A 22.585 22.585 0 0 1 254.946 7.776 A 23.357 23.357 0 0 1 259.766 5.913 A 20.34 20.34 0 0 1 265.029 5.23 A 13.233 13.233 0 0 1 266.192 5.279 A 10.501 10.501 0 0 1 267.849 5.554 A 8.111 8.111 0 0 1 268.899 5.894 A 6.063 6.063 0 0 1 270.037 6.494 A 4.514 4.514 0 0 1 271.455 8.015 A 3.815 3.815 0 0 1 271.815 8.889 A 4.498 4.498 0 0 1 271.968 10.083 Q 271.968 12.236 270.601 14.031 A 10.964 10.964 0 0 1 269.355 15.404 A 13.007 13.007 0 0 1 267.046 17.107 A 17.808 17.808 0 0 1 265.629 17.853 A 20.476 20.476 0 0 1 262.158 19.107 Q 259.458 19.824 256.792 19.824 L 255.972 19.824 Q 255.86 19.824 255.777 19.81 A 0.559 0.559 0 0 1 255.698 19.79 L 255.493 21.568 A 0.524 0.524 0 0 1 255.512 21.568 Q 255.584 21.571 255.807 21.59 A 36.177 36.177 0 0 1 255.938 21.602 A 5.218 5.218 0 0 0 255.954 21.603 Q 256.208 21.625 256.568 21.633 A 18.334 18.334 0 0 0 256.929 21.636 A 19.536 19.536 0 0 0 257.86 21.613 A 22.204 22.204 0 0 0 260.757 21.277 Q 262.739 20.918 264.602 20.234 A 20.043 20.043 0 0 0 268.123 18.543 A 16.363 16.363 0 0 0 268.73 18.155 A 14.311 14.311 0 0 0 271.028 16.253 A 10.361 10.361 0 0 0 273.01 13.399 A 7.814 7.814 0 0 0 273.745 10.049 A 5.974 5.974 0 0 0 272.993 7.092 A 6.328 6.328 0 0 0 272.33 6.126 A 7.199 7.199 0 0 0 270.84 4.785 A 8.15 8.15 0 0 0 270.793 4.753 Q 270.055 4.257 269.145 3.878 A 13.094 13.094 0 0 0 267.405 3.298 A 13.561 13.561 0 0 0 267.337 3.281 Q 266.286 3.013 265.085 2.885 A 21.864 21.864 0 0 0 262.774 2.769 Q 260.244 2.769 257.664 3.333 Q 255.083 3.897 252.691 4.973 Q 250.298 6.05 248.196 7.588 Q 246.094 9.126 244.539 11.091 Q 242.984 13.057 242.095 15.398 A 13.895 13.895 0 0 0 241.206 20.371 A 11.306 11.306 0 0 0 241.548 23.157 Q 241.89 24.507 242.505 25.737 Q 238.814 25.908 235.84 26.763 A 25.604 25.604 0 0 0 233.695 27.48 A 20.383 20.383 0 0 0 230.576 28.984 A 20.598 20.598 0 0 0 229.705 29.534 A 17.794 17.794 0 0 0 226.611 32.129 A 19.659 19.659 0 0 0 226.005 32.803 A 17.133 17.133 0 0 0 223.877 35.889 Q 222.818 37.871 222.305 39.956 A 18.971 18.971 0 0 0 222.235 40.249 A 17.015 17.015 0 0 0 221.792 44.058 A 14.213 14.213 0 0 0 222.852 49.509 A 11.923 11.923 0 0 0 223.25 50.378 A 12.474 12.474 0 0 0 226.116 54.055 A 14.236 14.236 0 0 0 228.694 55.868 A 18.864 18.864 0 0 0 231.67 57.183 A 17.322 17.322 0 0 0 232.474 57.44 Q 234.086 57.912 235.966 58.138 A 30.796 30.796 0 0 0 239.634 58.345 A 32.038 32.038 0 0 0 241.953 58.262 A 26.918 26.918 0 0 0 247.461 57.302 Q 251.084 56.26 254.143 54.585 A 38.013 38.013 0 0 0 255.27 53.943 A 33.619 33.619 0 0 0 259.68 50.842 A 53.361 53.361 0 0 0 261.528 49.229 A 42.97 42.97 0 0 0 264.055 46.724 Q 265.004 45.698 265.811 44.729 A 37.227 37.227 0 0 0 267.285 42.844 A 329.658 329.658 0 0 0 267.56 42.466 Q 268.382 41.335 268.977 40.496 A 99.255 99.255 0 0 0 269.404 39.888 M 57.285 10.151 L 58.277 11.211 A 0.096 0.096 0 0 0 58.249 11.23 Q 58.112 11.343 57.312 12.129 A 203.725 203.725 0 0 0 57.012 12.424 Q 56.07 13.353 54.647 15.024 A 100.236 100.236 0 0 0 53.731 16.116 A 76.775 76.775 0 0 0 52.104 18.157 Q 51.389 19.084 50.612 20.137 A 156.354 156.354 0 0 0 48.997 22.371 Q 46.314 26.148 43.374 31.275 L 42.041 33.599 A 67.457 67.457 0 0 1 44.331 33.086 A 72.146 72.146 0 0 1 46.69 32.642 L 48.228 32.334 Q 49.321 30.352 50.227 29.087 Q 50.902 28.145 51.5 27.498 A 9.24 9.24 0 0 1 51.902 27.088 A 7.375 7.375 0 0 1 52.417 26.637 Q 52.67 26.436 52.91 26.291 A 3.179 3.179 0 0 1 53.32 26.079 Q 53.83 25.865 54.256 25.818 A 2.103 2.103 0 0 1 54.483 25.806 A 1.985 1.985 0 0 1 55.379 26.025 A 2.662 2.662 0 0 1 55.747 26.25 Q 56.224 26.594 56.331 27.369 A 3.557 3.557 0 0 1 56.362 27.857 Q 56.362 28.779 55.918 29.634 A 5.429 5.429 0 0 1 55.184 30.699 A 6.83 6.83 0 0 1 54.653 31.24 A 8.299 8.299 0 0 1 53.444 32.154 A 10.175 10.175 0 0 1 52.705 32.573 A 11.064 11.064 0 0 1 50.92 33.298 A 13.044 13.044 0 0 1 50.21 33.496 A 222.372 222.372 0 0 0 49.217 35.563 A 250.309 250.309 0 0 0 48.877 36.282 A 98.486 98.486 0 0 1 47.442 39.204 A 98.658 98.658 0 0 1 45.903 42.092 Q 45.117 43.511 44.263 44.776 L 41.836 42.485 Q 42.132 42.124 42.729 41.35 A 146.068 146.068 0 0 0 42.776 41.289 A 57.131 57.131 0 0 0 43.434 40.418 A 76.755 76.755 0 0 0 44.143 39.443 A 41.695 41.695 0 0 0 45.416 37.557 A 46.214 46.214 0 0 0 45.596 37.273 A 28.99 28.99 0 0 0 46.338 36.023 A 22.635 22.635 0 0 0 46.826 35.103 L 47.305 34.077 Q 45.733 34.419 44.143 34.778 Q 42.554 35.137 40.879 35.581 Q 38.247 40.093 35.735 43.767 A 40.227 40.227 0 0 1 32.806 47.566 A 32.454 32.454 0 0 1 30.386 50.056 A 21.278 21.278 0 0 1 24.165 54.089 A 17.862 17.862 0 0 1 19.848 55.265 A 23.833 23.833 0 0 1 16.372 55.508 A 21.755 21.755 0 0 1 10.67 54.73 A 24.053 24.053 0 0 1 10.579 54.705 Q 7.656 53.901 5.315 52.363 Q 2.974 50.825 1.487 48.604 A 8.84 8.84 0 0 1 0.002 43.766 A 10.69 10.69 0 0 1 0 43.545 A 9.671 9.671 0 0 1 0.232 41.386 A 7.813 7.813 0 0 1 0.872 39.597 A 8.531 8.531 0 0 1 3.247 36.692 A 10.208 10.208 0 0 1 6.018 35.159 A 11.978 11.978 0 0 1 6.751 34.915 A 14.556 14.556 0 0 1 10.686 34.319 A 16.347 16.347 0 0 1 10.972 34.317 A 15.937 15.937 0 0 1 14.68 34.761 Q 16.543 35.205 18.286 36.026 A 18.447 18.447 0 0 1 21.585 38.025 A 17.066 17.066 0 0 1 24.37 40.674 L 23.071 41.665 Q 22.046 40.64 20.781 39.837 Q 19.517 39.033 18.081 38.469 Q 16.646 37.905 15.142 37.615 Q 13.638 37.324 12.168 37.324 Q 10.562 37.324 9.024 37.734 A 7.903 7.903 0 0 0 6.632 38.805 A 7.469 7.469 0 0 0 6.289 39.05 A 6.881 6.881 0 0 0 4.461 41.156 A 8.006 8.006 0 0 0 4.341 41.375 Q 3.634 42.709 3.592 44.602 A 10.883 10.883 0 0 0 3.589 44.844 A 6.816 6.816 0 0 0 4.512 48.296 A 9.02 9.02 0 0 0 6.78 50.895 A 10.41 10.41 0 0 0 7.024 51.082 A 11.954 11.954 0 0 0 9.468 52.469 A 14.618 14.618 0 0 0 10.75 52.944 A 14.598 14.598 0 0 0 14.561 53.611 A 16.765 16.765 0 0 0 15.313 53.628 A 15.991 15.991 0 0 0 18.98 53.223 A 13.306 13.306 0 0 0 21.533 52.346 A 18.94 18.94 0 0 0 26.496 48.981 A 21.245 21.245 0 0 0 26.643 48.843 A 31.279 31.279 0 0 0 29.725 45.435 A 37.557 37.557 0 0 0 31.052 43.63 Q 33.12 40.64 35.171 37.256 A 97.539 97.539 0 0 0 33.223 37.905 A 69.162 69.162 0 0 0 31.24 38.623 L 30.591 36.948 Q 32.163 36.436 33.599 35.991 L 36.47 35.103 A 589.511 589.511 0 0 1 40.455 28.561 A 638.182 638.182 0 0 1 40.52 28.455 A 81.749 81.749 0 0 1 45.117 21.79 A 61.24 61.24 0 0 1 50.603 15.552 Q 53.594 12.578 57.285 10.151 Z M 115.015 29.702 L 110.537 39.683 A 63.07 63.07 0 0 1 114.314 34.949 A 43.267 43.267 0 0 1 117.024 32.126 A 36.51 36.51 0 0 1 118.364 30.916 A 23.122 23.122 0 0 1 120.682 29.157 A 18.608 18.608 0 0 1 122.5 28.096 Q 124.585 27.036 126.568 27.036 A 6.619 6.619 0 0 1 127.395 27.085 Q 127.813 27.138 128.163 27.248 A 3.194 3.194 0 0 1 128.584 27.412 A 3.967 3.967 0 0 1 129.284 27.836 A 3.092 3.092 0 0 1 129.832 28.369 A 3.476 3.476 0 0 1 130.481 29.685 A 5.873 5.873 0 0 1 130.668 31.048 A 5.494 5.494 0 0 1 130.669 31.138 A 6.189 6.189 0 0 1 130.558 32.276 A 8.466 8.466 0 0 1 130.276 33.359 A 9.3 9.3 0 0 1 129.624 34.862 A 11.623 11.623 0 0 1 129.08 35.769 A 11.491 11.491 0 0 1 127.842 37.318 A 14.058 14.058 0 0 1 127.046 38.093 A 12.834 12.834 0 0 1 125.345 39.38 A 16.156 16.156 0 0 1 124.107 40.093 Q 124.483 40.982 124.483 42.246 A 6.404 6.404 0 0 1 124.279 43.829 A 6.984 6.984 0 0 1 124.277 43.836 A 36.299 36.299 0 0 1 123.833 45.425 A 36.299 36.299 0 0 0 123.389 47.014 A 6.538 6.538 0 0 0 123.184 48.638 A 5.946 5.946 0 0 0 123.218 49.282 A 5.303 5.303 0 0 0 123.235 49.424 Q 123.286 49.8 123.44 50.108 A 1.152 1.152 0 0 0 123.835 50.551 A 1.423 1.423 0 0 0 123.919 50.603 A 1.206 1.206 0 0 0 124.205 50.72 Q 124.347 50.759 124.519 50.776 A 2.977 2.977 0 0 0 124.824 50.791 A 2.042 2.042 0 0 0 125.39 50.705 Q 125.644 50.632 125.922 50.496 A 5.005 5.005 0 0 0 126.397 50.227 A 10.611 10.611 0 0 0 127.194 49.665 Q 127.588 49.361 128 48.993 A 18.098 18.098 0 0 0 128.277 48.74 A 23.86 23.86 0 0 0 129.408 47.61 A 30.616 30.616 0 0 0 130.31 46.604 Q 131.353 45.391 132.344 44.058 A 117.627 117.627 0 0 0 134.258 41.409 A 89.992 89.992 0 0 0 135.138 40.131 A 71.935 71.935 0 0 0 135.933 38.931 L 137.197 39.888 A 286.823 286.823 0 0 1 134.631 43.65 A 253.489 253.489 0 0 1 133.797 44.844 A 43.89 43.89 0 0 1 132.139 47.057 A 33.965 33.965 0 0 1 130.481 48.98 A 19.293 19.293 0 0 1 128.811 50.578 A 14.481 14.481 0 0 1 127.114 51.817 A 7.187 7.187 0 0 1 125.228 52.655 A 6.149 6.149 0 0 1 123.594 52.876 A 5.534 5.534 0 0 1 122.5 52.763 A 6.526 6.526 0 0 1 122.107 52.671 A 4.185 4.185 0 0 1 120.706 52.005 A 3.527 3.527 0 0 1 119.811 51.041 A 4.206 4.206 0 0 1 119.663 50.791 A 3.203 3.203 0 0 1 119.346 49.91 Q 119.265 49.524 119.255 49.079 A 5.668 5.668 0 0 1 119.253 48.945 A 6.445 6.445 0 0 1 119.36 47.817 Q 119.458 47.268 119.645 46.658 A 13.581 13.581 0 0 1 119.902 45.903 A 44.537 44.537 0 0 0 120.266 44.838 Q 120.422 44.36 120.544 43.938 A 19.38 19.38 0 0 0 120.757 43.152 Q 120.946 42.383 121.021 41.786 A 6.341 6.341 0 0 0 121.065 41.289 A 22.938 22.938 0 0 1 119.964 41.522 A 26.596 26.596 0 0 1 119.544 41.597 A 9.755 9.755 0 0 1 118.573 41.714 A 8.069 8.069 0 0 1 118.023 41.734 A 3.848 3.848 0 0 1 117.591 41.708 A 5.086 5.086 0 0 1 117.202 41.648 A 2.819 2.819 0 0 1 116.417 41.377 A 2.661 2.661 0 0 1 116.382 41.358 A 2.04 2.04 0 0 1 115.75 40.828 Q 115.495 40.505 115.493 39.997 A 2.033 2.033 0 0 1 115.493 39.99 A 1.621 1.621 0 0 1 115.724 39.162 A 2.037 2.037 0 0 1 115.818 39.016 Q 116.143 38.555 116.707 38.196 A 4.135 4.135 0 0 1 117.39 37.849 A 5.571 5.571 0 0 1 118.057 37.632 A 6.201 6.201 0 0 1 118.995 37.466 A 7.956 7.956 0 0 1 119.8 37.427 A 5.509 5.509 0 0 1 121.378 37.644 A 4.563 4.563 0 0 1 122.842 38.384 A 10.731 10.731 0 0 0 124.213 37.121 A 9.015 9.015 0 0 0 124.876 36.299 A 13.155 13.155 0 0 0 125.589 35.188 A 9.927 9.927 0 0 0 126.123 34.111 A 13.418 13.418 0 0 0 126.439 33.287 Q 126.637 32.712 126.738 32.214 A 14.489 14.489 0 0 0 126.813 31.822 Q 126.909 31.275 126.909 30.967 A 4.881 4.881 0 0 0 126.884 30.447 Q 126.807 29.732 126.499 29.412 A 1.374 1.374 0 0 0 125.999 29.072 A 1.358 1.358 0 0 0 125.508 28.984 A 3.993 3.993 0 0 0 124.502 29.122 Q 123.824 29.299 123.064 29.702 A 13.621 13.621 0 0 0 121.688 30.548 Q 120.988 31.035 120.261 31.651 A 34.242 34.242 0 0 0 118.512 33.244 A 42.874 42.874 0 0 0 117.288 34.487 A 61.822 61.822 0 0 0 114.314 37.871 Q 112.861 39.649 111.511 41.46 A 166.089 166.089 0 0 0 110.217 43.22 A 134.526 134.526 0 0 0 109.033 44.878 A 104.208 104.208 0 0 0 108.064 46.527 A 80.311 80.311 0 0 0 107.205 48.057 A 167.984 167.984 0 0 0 106.638 49.101 Q 106.417 49.513 106.221 49.884 A 86.039 86.039 0 0 0 105.855 50.586 Q 105.436 51.397 105.157 51.908 A 24.779 24.779 0 0 1 105 52.193 A 5.533 5.533 0 0 1 104.931 52.313 Q 104.688 52.719 104.658 52.568 L 101.275 51.68 A 2160.294 2160.294 0 0 1 109.444 33.291 A 668.731 668.731 0 0 1 118.159 14.697 A 101.431 101.431 0 0 1 118.89 13.266 A 134.184 134.184 0 0 1 119.715 11.707 Q 120.586 10.083 121.594 8.46 Q 122.603 6.836 123.748 5.298 A 24.233 24.233 0 0 1 125.206 3.516 A 20.09 20.09 0 0 1 126.106 2.581 A 13.129 13.129 0 0 1 127.449 1.434 A 10.361 10.361 0 0 1 128.584 0.701 A 5.814 5.814 0 0 1 129.849 0.175 A 4.718 4.718 0 0 1 131.113 0 A 3.861 3.861 0 0 1 132.079 0.115 A 2.831 2.831 0 0 1 133.284 0.752 Q 133.956 1.356 134.089 2.532 A 5.475 5.475 0 0 1 134.121 3.145 Q 134.121 4.771 133.491 6.903 A 25.429 25.429 0 0 1 132.908 8.63 Q 131.694 11.86 129.302 15.484 A 46.389 46.389 0 0 1 126.237 19.586 A 59.973 59.973 0 0 1 123.338 22.815 A 48.224 48.224 0 0 1 117.594 27.872 A 56.731 56.731 0 0 1 115.015 29.702 Z M 382.881 29.702 L 378.403 39.683 A 63.07 63.07 0 0 1 382.18 34.949 A 43.267 43.267 0 0 1 384.89 32.126 A 36.51 36.51 0 0 1 386.231 30.916 A 23.122 23.122 0 0 1 388.549 29.157 A 18.608 18.608 0 0 1 390.366 28.096 Q 392.451 27.036 394.434 27.036 A 6.619 6.619 0 0 1 395.261 27.085 Q 395.679 27.138 396.029 27.248 A 3.194 3.194 0 0 1 396.45 27.412 A 3.967 3.967 0 0 1 397.15 27.836 A 3.092 3.092 0 0 1 397.698 28.369 A 3.476 3.476 0 0 1 398.347 29.685 A 5.873 5.873 0 0 1 398.535 31.048 A 5.494 5.494 0 0 1 398.535 31.138 A 6.189 6.189 0 0 1 398.424 32.276 A 8.466 8.466 0 0 1 398.142 33.359 A 9.3 9.3 0 0 1 397.491 34.862 A 11.623 11.623 0 0 1 396.946 35.769 A 11.491 11.491 0 0 1 395.708 37.318 A 14.058 14.058 0 0 1 394.912 38.093 A 12.834 12.834 0 0 1 393.211 39.38 A 16.156 16.156 0 0 1 391.973 40.093 Q 392.349 40.982 392.349 42.246 A 6.404 6.404 0 0 1 392.145 43.829 A 6.984 6.984 0 0 1 392.144 43.836 A 36.299 36.299 0 0 1 391.699 45.425 A 36.299 36.299 0 0 0 391.255 47.014 A 6.538 6.538 0 0 0 391.05 48.638 A 5.946 5.946 0 0 0 391.084 49.282 A 5.303 5.303 0 0 0 391.101 49.424 Q 391.152 49.8 391.306 50.108 A 1.152 1.152 0 0 0 391.702 50.551 A 1.423 1.423 0 0 0 391.785 50.603 A 1.206 1.206 0 0 0 392.071 50.72 Q 392.214 50.759 392.386 50.776 A 2.977 2.977 0 0 0 392.691 50.791 A 2.042 2.042 0 0 0 393.256 50.705 Q 393.51 50.632 393.788 50.496 A 5.005 5.005 0 0 0 394.263 50.227 A 10.611 10.611 0 0 0 395.06 49.665 Q 395.454 49.361 395.866 48.993 A 18.098 18.098 0 0 0 396.143 48.74 A 23.86 23.86 0 0 0 397.274 47.61 A 30.616 30.616 0 0 0 398.176 46.604 Q 399.219 45.391 400.21 44.058 A 117.627 117.627 0 0 0 402.124 41.409 A 89.992 89.992 0 0 0 403.004 40.131 A 71.935 71.935 0 0 0 403.799 38.931 L 405.064 39.888 A 286.823 286.823 0 0 1 402.497 43.65 A 253.489 253.489 0 0 1 401.663 44.844 A 43.89 43.89 0 0 1 400.005 47.057 A 33.965 33.965 0 0 1 398.347 48.98 A 19.293 19.293 0 0 1 396.677 50.578 A 14.481 14.481 0 0 1 394.981 51.817 A 7.187 7.187 0 0 1 393.095 52.655 A 6.149 6.149 0 0 1 391.46 52.876 A 5.534 5.534 0 0 1 390.366 52.763 A 6.526 6.526 0 0 1 389.973 52.671 A 4.185 4.185 0 0 1 388.572 52.005 A 3.527 3.527 0 0 1 387.677 51.041 A 4.206 4.206 0 0 1 387.529 50.791 A 3.203 3.203 0 0 1 387.212 49.91 Q 387.131 49.524 387.121 49.079 A 5.668 5.668 0 0 1 387.119 48.945 A 6.445 6.445 0 0 1 387.226 47.817 Q 387.324 47.268 387.512 46.658 A 13.581 13.581 0 0 1 387.769 45.903 A 44.537 44.537 0 0 0 388.132 44.838 Q 388.288 44.36 388.411 43.938 A 19.38 19.38 0 0 0 388.623 43.152 Q 388.813 42.383 388.887 41.786 A 6.341 6.341 0 0 0 388.931 41.289 A 22.938 22.938 0 0 1 387.831 41.522 A 26.596 26.596 0 0 1 387.41 41.597 A 9.755 9.755 0 0 1 386.439 41.714 A 8.069 8.069 0 0 1 385.889 41.734 A 3.848 3.848 0 0 1 385.457 41.708 A 5.086 5.086 0 0 1 385.069 41.648 A 2.819 2.819 0 0 1 384.284 41.377 A 2.661 2.661 0 0 1 384.248 41.358 A 2.04 2.04 0 0 1 383.616 40.828 Q 383.361 40.505 383.36 39.997 A 2.033 2.033 0 0 1 383.36 39.99 A 1.621 1.621 0 0 1 383.591 39.162 A 2.037 2.037 0 0 1 383.684 39.016 Q 384.009 38.555 384.573 38.196 A 4.135 4.135 0 0 1 385.256 37.849 A 5.571 5.571 0 0 1 385.923 37.632 A 6.201 6.201 0 0 1 386.861 37.466 A 7.956 7.956 0 0 1 387.666 37.427 A 5.509 5.509 0 0 1 389.244 37.644 A 4.563 4.563 0 0 1 390.708 38.384 A 10.731 10.731 0 0 0 392.079 37.121 A 9.015 9.015 0 0 0 392.742 36.299 A 13.155 13.155 0 0 0 393.455 35.188 A 9.927 9.927 0 0 0 393.989 34.111 A 13.418 13.418 0 0 0 394.305 33.287 Q 394.503 32.712 394.605 32.214 A 14.489 14.489 0 0 0 394.679 31.822 Q 394.776 31.275 394.776 30.967 A 4.881 4.881 0 0 0 394.75 30.447 Q 394.673 29.732 394.365 29.412 A 1.374 1.374 0 0 0 393.866 29.072 A 1.358 1.358 0 0 0 393.374 28.984 A 3.993 3.993 0 0 0 392.368 29.122 Q 391.69 29.299 390.93 29.702 A 13.621 13.621 0 0 0 389.555 30.548 Q 388.854 31.035 388.128 31.651 A 34.242 34.242 0 0 0 386.378 33.244 A 42.874 42.874 0 0 0 385.154 34.487 A 61.822 61.822 0 0 0 382.18 37.871 Q 380.728 39.649 379.378 41.46 A 166.089 166.089 0 0 0 378.083 43.22 A 134.526 134.526 0 0 0 376.9 44.878 A 104.208 104.208 0 0 0 375.93 46.527 A 80.311 80.311 0 0 0 375.071 48.057 A 167.984 167.984 0 0 0 374.505 49.101 Q 374.284 49.513 374.088 49.884 A 86.039 86.039 0 0 0 373.721 50.586 Q 373.302 51.397 373.024 51.908 A 24.779 24.779 0 0 1 372.866 52.193 A 5.533 5.533 0 0 1 372.797 52.313 Q 372.555 52.719 372.525 52.568 L 369.141 51.68 A 2160.294 2160.294 0 0 1 377.31 33.291 A 668.731 668.731 0 0 1 386.026 14.697 A 101.431 101.431 0 0 1 386.756 13.266 A 134.184 134.184 0 0 1 387.581 11.707 Q 388.452 10.083 389.461 8.46 Q 390.469 6.836 391.614 5.298 A 24.233 24.233 0 0 1 393.072 3.516 A 20.09 20.09 0 0 1 393.972 2.581 A 13.129 13.129 0 0 1 395.315 1.434 A 10.361 10.361 0 0 1 396.45 0.701 A 5.814 5.814 0 0 1 397.715 0.175 A 4.718 4.718 0 0 1 398.98 0 A 3.861 3.861 0 0 1 399.945 0.115 A 2.831 2.831 0 0 1 401.15 0.752 Q 401.822 1.356 401.955 2.532 A 5.475 5.475 0 0 1 401.987 3.145 Q 401.987 4.771 401.357 6.903 A 25.429 25.429 0 0 1 400.774 8.63 Q 399.561 11.86 397.168 15.484 A 46.389 46.389 0 0 1 394.103 19.586 A 59.973 59.973 0 0 1 391.204 22.815 A 48.224 48.224 0 0 1 385.46 27.872 A 56.731 56.731 0 0 1 382.881 29.702 Z M 34.487 28.233 L 35.205 29.805 A 30.605 30.605 0 0 1 30.508 31.516 A 27.132 27.132 0 0 1 28.95 31.89 A 31.671 31.671 0 0 1 25.57 32.415 A 25.272 25.272 0 0 1 23.106 32.539 A 20.599 20.599 0 0 1 19.703 32.269 A 16.732 16.732 0 0 1 17.295 31.685 A 15.284 15.284 0 0 1 14.423 30.429 A 12.82 12.82 0 0 1 12.749 29.292 Q 10.835 27.754 9.776 25.601 A 10.433 10.433 0 0 1 8.733 21.492 A 12.347 12.347 0 0 1 8.716 20.85 A 16.23 16.23 0 0 1 8.994 17.782 A 12.657 12.657 0 0 1 9.827 15.073 Q 10.938 12.544 12.852 10.613 Q 14.766 8.682 17.363 7.349 A 30.626 30.626 0 0 1 22.564 5.27 A 33.729 33.729 0 0 1 22.935 5.161 A 38.613 38.613 0 0 1 29.121 3.931 Q 32.334 3.555 35.479 3.555 A 54.58 54.58 0 0 1 42.52 3.999 A 201.875 201.875 0 0 1 49.168 4.973 A 366.595 366.595 0 0 0 54.676 5.835 A 333.389 333.389 0 0 0 55.44 5.947 A 41.34 41.34 0 0 0 61.023 6.39 A 38.163 38.163 0 0 0 61.387 6.392 A 37.645 37.645 0 0 0 64.955 6.23 A 29.976 29.976 0 0 0 67.505 5.879 A 53.804 53.804 0 0 0 69.497 5.478 Q 71.064 5.129 72.324 4.734 A 44.956 44.956 0 0 0 73.5 4.349 Q 74.699 3.936 75.486 3.572 Q 76.531 3.089 76.651 3.046 A 0.064 0.064 0 0 1 76.665 3.042 L 77.52 4.614 A 0.582 0.582 0 0 1 77.476 4.639 Q 77.263 4.753 76.187 5.247 Q 75.011 5.786 73.039 6.418 A 57.173 57.173 0 0 1 72.854 6.477 Q 70.752 7.144 67.847 7.673 Q 64.942 8.203 61.455 8.203 A 45.004 45.004 0 0 1 55.956 7.876 A 40.872 40.872 0 0 1 55.2 7.776 A 246.051 246.051 0 0 1 49.133 6.836 A 173.271 173.271 0 0 0 43.61 6.004 A 190.789 190.789 0 0 0 42.793 5.896 A 50.841 50.841 0 0 0 38.491 5.529 A 62.429 62.429 0 0 0 35.718 5.469 A 49.97 49.97 0 0 0 31.065 5.675 Q 28.634 5.903 26.51 6.382 A 29.46 29.46 0 0 0 25.823 6.546 Q 21.533 7.622 18.645 9.622 A 14.085 14.085 0 0 0 15.652 12.376 A 12.445 12.445 0 0 0 14.287 14.475 A 13.357 13.357 0 0 0 12.861 19.659 A 16.092 16.092 0 0 0 12.818 20.85 A 10.593 10.593 0 0 0 13.024 22.99 A 8.065 8.065 0 0 0 13.757 25.088 A 8.759 8.759 0 0 0 16.287 28.096 A 10.985 10.985 0 0 0 19.372 29.71 A 12.737 12.737 0 0 0 19.944 29.89 A 15.483 15.483 0 0 0 24.268 30.488 A 21.038 21.038 0 0 0 27.98 30.168 A 19.545 19.545 0 0 0 28.096 30.147 Q 29.747 29.841 31.042 29.467 A 21.207 21.207 0 0 0 31.343 29.378 A 38.117 38.117 0 0 0 32.165 29.117 Q 32.588 28.978 32.947 28.846 A 15.292 15.292 0 0 0 33.599 28.591 A 107.614 107.614 0 0 1 33.8 28.507 Q 34.392 28.26 34.475 28.235 A 0.056 0.056 0 0 1 34.487 28.233 Z M 86.133 38.931 A 106.619 106.619 0 0 1 84.864 40.772 A 135.913 135.913 0 0 1 83.45 42.742 A 49.758 49.758 0 0 1 82.702 43.738 A 43.676 43.676 0 0 1 80.408 46.484 A 25.171 25.171 0 0 1 78.861 48.048 A 18.652 18.652 0 0 1 77.332 49.321 Q 75.855 50.416 74.621 50.416 A 2.762 2.762 0 0 1 74.546 50.415 Q 74.102 50.415 73.897 50.108 A 1.054 1.054 0 0 1 73.838 50.007 Q 73.692 49.725 73.692 49.321 A 3.714 3.714 0 0 1 73.706 48.997 Q 73.803 47.895 74.529 46.177 A 40.528 40.528 0 0 1 74.953 45.209 Q 75.334 44.371 75.803 43.425 A 83.429 83.429 0 0 1 76.785 41.511 Q 77.538 40.086 78.408 38.468 A 739.497 739.497 0 0 1 80.032 35.462 A 276.618 276.618 0 0 0 81.899 31.962 A 337.125 337.125 0 0 0 83.843 28.198 L 81.348 26.968 A 66.799 66.799 0 0 1 80.695 28.106 Q 80.34 28.71 79.931 29.385 A 141.076 141.076 0 0 1 78.87 31.104 A 119.16 119.16 0 0 1 77.683 32.957 A 143.687 143.687 0 0 1 75.503 36.196 A 103.366 103.366 0 0 1 71.59 41.477 A 63.031 63.031 0 0 1 70.039 43.364 A 52.115 52.115 0 0 1 67.454 46.177 A 35.51 35.51 0 0 1 67.325 46.306 Q 66.357 47.272 65.412 48.065 A 21.87 21.87 0 0 1 63.421 49.561 Q 61.455 50.859 59.815 50.859 A 4.258 4.258 0 0 1 59.605 50.854 Q 59.203 50.835 58.878 50.737 A 1.756 1.756 0 0 1 57.781 49.868 Q 57.251 48.877 57.251 47.476 Q 57.251 46.303 57.543 45.017 A 15.724 15.724 0 0 1 58.174 42.947 Q 59.097 40.503 60.447 38.059 A 67.878 67.878 0 0 1 63.318 33.325 Q 64.102 32.145 64.809 31.091 A 401.978 401.978 0 0 1 66.069 29.224 L 64.6 28.198 A 60.177 60.177 0 0 0 62.81 29.959 A 78.862 78.862 0 0 0 60.925 31.958 A 38.992 38.992 0 0 0 57.405 36.436 Q 55.816 38.794 54.773 41.289 A 14.7 14.7 0 0 0 54.212 42.874 A 11.738 11.738 0 0 0 53.731 46.143 A 9.877 9.877 0 0 0 53.793 47.273 A 7.693 7.693 0 0 0 54.141 48.86 A 6.606 6.606 0 0 0 54.4 49.513 A 5.384 5.384 0 0 0 55.32 50.911 A 5.402 5.402 0 0 0 57.131 52.21 A 5.175 5.175 0 0 0 58.111 52.529 A 6.292 6.292 0 0 0 59.473 52.671 A 7.459 7.459 0 0 0 59.905 52.659 A 7.875 7.875 0 0 0 62.515 52.039 A 13.342 13.342 0 0 0 63.834 51.394 A 16.554 16.554 0 0 0 65.54 50.296 A 22.416 22.416 0 0 0 66.874 49.239 A 28.068 28.068 0 0 0 68.599 47.63 A 55.843 55.843 0 0 0 69.563 46.629 A 65.214 65.214 0 0 0 71.709 44.229 Q 71.162 45.425 70.872 46.484 Q 70.726 47.014 70.654 47.501 A 6.321 6.321 0 0 0 70.581 48.433 A 3.83 3.83 0 0 0 70.855 49.868 A 3.806 3.806 0 0 0 71.607 51.065 A 3.286 3.286 0 0 0 71.945 51.379 A 3.693 3.693 0 0 0 72.786 51.885 A 3.5 3.5 0 0 0 73.496 52.108 A 4.396 4.396 0 0 0 74.375 52.193 A 5.414 5.414 0 0 0 75.865 51.979 A 6.899 6.899 0 0 0 77.28 51.389 A 13.261 13.261 0 0 0 78.189 50.844 A 15.335 15.335 0 0 0 80.117 49.339 A 26.027 26.027 0 0 0 82.715 46.587 A 55.262 55.262 0 0 0 83.67 45.388 A 44.033 44.033 0 0 0 84.902 43.716 A 65.143 65.143 0 0 0 85.471 42.891 Q 86.062 42.018 86.509 41.289 Q 87.016 40.461 87.252 40.072 A 50.194 50.194 0 0 0 87.363 39.888 M 312.163 38.931 L 313.428 39.888 A 38.339 38.339 0 0 1 311.152 43.31 A 30.941 30.941 0 0 1 309.497 45.339 A 29.223 29.223 0 0 1 307.119 47.73 A 23.267 23.267 0 0 1 305.225 49.253 A 18.758 18.758 0 0 1 302.472 50.907 A 15.714 15.714 0 0 1 300.781 51.611 Q 298.526 52.398 296.372 52.398 A 10.358 10.358 0 0 1 293.108 51.885 Q 291.553 51.372 290.374 50.33 A 6.992 6.992 0 0 1 288.926 48.522 A 8.69 8.69 0 0 1 288.494 47.647 Q 287.825 46.08 287.795 43.954 A 14.259 14.259 0 0 1 287.793 43.75 A 16.511 16.511 0 0 1 288.341 39.458 A 15.259 15.259 0 0 1 288.562 38.709 Q 289.331 36.333 290.613 34.317 A 19.955 19.955 0 0 1 293.569 30.676 A 21.164 21.164 0 0 1 296.168 28.52 A 18.815 18.815 0 0 1 297.073 27.925 A 17.531 17.531 0 0 1 299.719 26.577 A 15.323 15.323 0 0 1 300.764 26.199 A 13.168 13.168 0 0 1 302.572 25.75 A 10.075 10.075 0 0 1 304.268 25.601 Q 305.462 25.601 306.343 25.835 A 4.634 4.634 0 0 1 307.002 26.062 Q 308.062 26.524 308.677 27.173 A 4.086 4.086 0 0 1 309.167 27.797 A 3.109 3.109 0 0 1 309.514 28.54 Q 309.736 29.258 309.736 29.771 A 6.38 6.38 0 0 1 309.645 30.822 A 8.033 8.033 0 0 1 309.497 31.514 A 7.395 7.395 0 0 1 309.033 32.812 A 6.609 6.609 0 0 1 308.831 33.206 A 4.489 4.489 0 0 1 308.111 34.179 A 4.065 4.065 0 0 1 307.771 34.487 A 2.335 2.335 0 0 1 307.089 34.879 A 2.063 2.063 0 0 1 306.387 35 A 1.869 1.869 0 0 1 305.088 34.505 A 1.603 1.603 0 0 1 304.543 33.338 A 2.012 2.012 0 0 1 304.541 33.257 Q 304.541 33.225 304.587 32.888 A 58.141 58.141 0 0 1 304.592 32.847 Q 304.637 32.521 304.848 32.157 A 3.026 3.026 0 0 1 304.917 32.044 A 2.062 2.062 0 0 1 305.26 31.641 Q 305.431 31.483 305.651 31.34 A 3.722 3.722 0 0 1 305.755 31.275 A 2.04 2.04 0 0 1 306.26 31.061 Q 306.502 30.993 306.792 30.961 A 5.052 5.052 0 0 1 307.344 30.933 L 307.754 30.933 A 3.282 3.282 0 0 0 307.959 29.771 A 2.201 2.201 0 0 0 307.804 28.93 Q 307.601 28.434 307.134 28.079 A 2.577 2.577 0 0 0 307.088 28.045 A 2.696 2.696 0 0 0 306.369 27.685 Q 305.57 27.412 304.336 27.412 A 7.573 7.573 0 0 0 301.85 27.844 A 9.022 9.022 0 0 0 301.243 28.079 A 12.384 12.384 0 0 0 298.817 29.472 A 14.323 14.323 0 0 0 298.252 29.907 A 16.172 16.172 0 0 0 296.205 31.9 A 18.833 18.833 0 0 0 295.569 32.676 A 19.376 19.376 0 0 0 293.416 36.162 A 20.931 20.931 0 0 0 291.98 40.144 A 17.212 17.212 0 0 0 291.45 44.365 A 13.093 13.093 0 0 0 291.503 45.575 Q 291.591 46.523 291.826 47.271 Q 292.196 48.446 292.862 49.192 A 3.934 3.934 0 0 0 292.886 49.219 Q 293.569 49.971 294.527 50.296 A 6.026 6.026 0 0 0 295.747 50.567 A 7.826 7.826 0 0 0 296.68 50.62 A 10.525 10.525 0 0 0 301.26 49.561 Q 303.482 48.501 305.481 46.809 A 28.249 28.249 0 0 0 309.173 43.032 A 49.501 49.501 0 0 0 311.134 40.453 A 41.785 41.785 0 0 0 312.163 38.931 Z M 337.114 38.931 L 338.277 39.956 A 49.298 49.298 0 0 1 336.147 43.222 Q 335.083 44.713 334.005 45.949 A 29.413 29.413 0 0 1 333.696 46.297 A 32.33 32.33 0 0 1 331.449 48.568 A 23.501 23.501 0 0 1 329.065 50.484 A 19.96 19.96 0 0 1 326.779 51.868 A 15.056 15.056 0 0 1 324.536 52.808 A 15.238 15.238 0 0 1 322.11 53.387 A 12.229 12.229 0 0 1 320.298 53.526 A 11.862 11.862 0 0 1 318.394 53.365 A 14.711 14.711 0 0 1 317.188 53.115 A 9.199 9.199 0 0 1 314.163 51.748 A 7.382 7.382 0 0 1 312.198 49.718 A 8.842 8.842 0 0 1 311.873 49.185 Q 311.052 47.729 310.975 45.627 A 12.071 12.071 0 0 1 310.967 45.186 A 14.226 14.226 0 0 1 311.839 40.247 Q 312.71 37.871 314.111 35.82 Q 315.513 33.77 317.324 32.078 A 27.522 27.522 0 0 1 319.724 30.071 A 23.259 23.259 0 0 1 320.999 29.19 A 21.428 21.428 0 0 1 323.067 28.011 A 17.004 17.004 0 0 1 324.639 27.327 Q 326.416 26.66 327.783 26.66 A 6.233 6.233 0 0 1 329.307 26.855 A 7.149 7.149 0 0 1 329.595 26.934 Q 330.518 27.207 331.253 27.788 A 4.071 4.071 0 0 1 332.168 28.818 A 5.071 5.071 0 0 1 332.449 29.326 A 4.462 4.462 0 0 1 332.809 30.449 Q 332.902 30.949 332.91 31.519 A 7.584 7.584 0 0 1 332.91 31.616 A 7.189 7.189 0 0 1 332.073 35.017 Q 331.236 36.607 329.834 37.957 A 16.397 16.397 0 0 1 327.482 39.828 A 19.027 19.027 0 0 1 326.587 40.383 A 24.951 24.951 0 0 1 322.725 42.212 A 29.527 29.527 0 0 1 318.657 43.408 A 21.718 21.718 0 0 1 316.174 43.804 A 17.934 17.934 0 0 1 314.761 43.887 A 10.08 10.08 0 0 0 314.658 44.707 A 9.874 9.874 0 0 0 314.624 45.527 A 7.573 7.573 0 0 0 314.977 47.851 A 7.149 7.149 0 0 0 314.983 47.869 A 5.884 5.884 0 0 0 315.752 49.438 A 5.451 5.451 0 0 0 316.043 49.817 Q 316.743 50.654 317.786 51.133 A 5.209 5.209 0 0 0 319.279 51.555 A 6.669 6.669 0 0 0 320.161 51.611 Q 324.639 51.611 328.809 48.569 A 23.236 23.236 0 0 0 331.931 45.788 Q 333.393 44.25 334.85 42.273 A 53.864 53.864 0 0 0 337.114 38.931 Z M 345.523 26.694 L 347.027 27.686 A 65.166 65.166 0 0 0 344.762 31.372 A 53.617 53.617 0 0 0 343.609 33.513 A 60.106 60.106 0 0 0 342.297 36.252 A 46.488 46.488 0 0 0 341.233 38.828 Q 340.293 41.323 339.832 43.391 A 22.96 22.96 0 0 0 339.551 44.863 Q 339.438 45.588 339.396 46.227 A 11.171 11.171 0 0 0 339.37 46.963 A 10.524 10.524 0 0 0 339.399 47.772 Q 339.486 48.89 339.832 49.441 A 1.644 1.644 0 0 0 340.247 49.9 Q 340.588 50.15 341.051 50.173 A 1.911 1.911 0 0 0 341.148 50.176 A 3.154 3.154 0 0 0 341.69 50.123 Q 342.241 50.026 342.981 49.75 A 13.961 13.961 0 0 0 343.421 49.578 A 12.535 12.535 0 0 0 344.575 49.026 Q 345.146 48.719 345.775 48.321 A 27.775 27.775 0 0 0 346.787 47.647 A 29.791 29.791 0 0 0 350.584 44.452 A 33.839 33.839 0 0 0 351.419 43.596 A 28.169 28.169 0 0 0 355.195 38.589 A 12.599 12.599 0 0 1 354.358 36.094 A 12.335 12.335 0 0 1 354.068 33.394 A 16.899 16.899 0 0 1 354.113 32.114 Q 354.161 31.489 354.258 30.95 A 8.264 8.264 0 0 1 354.392 30.335 Q 354.717 29.087 355.195 28.318 Q 355.674 27.549 356.238 27.207 A 2.703 2.703 0 0 1 356.671 26.992 Q 357.002 26.865 357.315 26.865 A 1.916 1.916 0 0 1 358.152 27.053 A 1.585 1.585 0 0 1 358.567 27.346 Q 358.713 27.487 358.844 27.674 A 2.681 2.681 0 0 1 358.853 27.686 Q 359.16 28.13 359.348 28.848 Q 359.536 29.566 359.536 30.625 A 13.628 13.628 0 0 1 359.039 34.213 A 16.613 16.613 0 0 1 358.562 35.684 Q 357.588 38.281 355.965 40.708 A 31.484 31.484 0 0 1 352.222 45.288 A 36.069 36.069 0 0 1 348.758 48.394 A 32.111 32.111 0 0 1 347.847 49.082 A 20.005 20.005 0 0 1 347.19 49.536 Q 346.833 49.772 346.428 50.022 Q 345.625 50.518 344.719 50.945 A 13.329 13.329 0 0 1 342.84 51.663 A 6.934 6.934 0 0 1 341.524 51.925 A 6.042 6.042 0 0 1 340.943 51.953 A 4.931 4.931 0 0 1 338.921 51.548 A 4.77 4.77 0 0 1 337.2 50.227 A 5.735 5.735 0 0 1 336.11 48.155 Q 335.861 47.324 335.783 46.329 A 12.005 12.005 0 0 1 335.747 45.391 A 11.421 11.421 0 0 1 335.877 43.711 A 14.649 14.649 0 0 1 336.157 42.315 A 22.909 22.909 0 0 1 336.926 39.859 A 26.682 26.682 0 0 1 337.285 38.948 A 35.272 35.272 0 0 1 338.725 35.914 A 38.774 38.774 0 0 1 338.96 35.479 A 41.837 41.837 0 0 1 340.994 32.146 A 38.557 38.557 0 0 1 343.233 29.155 A 30.219 30.219 0 0 1 344.529 27.687 A 23.668 23.668 0 0 1 345.523 26.694 Z M 86.133 38.931 L 93.447 27.481 L 94.439 27.993 A 25.994 25.994 0 0 1 94.399 28.111 Q 94.335 28.3 94.228 28.61 A 170.054 170.054 0 0 1 94.216 28.643 A 2.833 2.833 0 0 0 94.068 29.41 A 3.296 3.296 0 0 0 94.063 29.6 A 2.309 2.309 0 0 0 94.182 30.335 Q 94.302 30.693 94.678 31.001 Q 95.725 31.943 96.431 32.555 A 50.744 50.744 0 0 0 96.831 32.898 A 25.95 25.95 0 0 1 97.198 33.214 Q 97.707 33.663 97.976 33.958 A 4.193 4.193 0 0 1 98.139 34.146 Q 98.356 34.415 98.421 34.607 A 1.441 1.441 0 0 1 98.472 34.82 Q 98.491 34.93 98.5 35.06 A 3.364 3.364 0 0 1 98.506 35.274 A 3.097 3.097 0 0 1 98.487 35.605 Q 98.455 35.902 98.369 36.265 Q 98.233 36.846 97.908 37.666 A 16.785 16.785 0 0 1 97.631 38.322 Q 97.372 38.903 97.019 39.597 Q 96.631 40.361 96.106 41.294 A 71.791 71.791 0 0 1 95.601 42.178 Q 95.088 43.067 94.592 43.972 Q 94.097 44.878 93.704 45.801 Q 93.311 46.724 93.071 47.647 A 7.495 7.495 0 0 0 92.86 48.828 A 6.383 6.383 0 0 0 92.832 49.424 A 3.657 3.657 0 0 0 92.854 49.836 Q 92.896 50.207 93.02 50.466 A 1.688 1.688 0 0 0 93.219 50.789 A 1.297 1.297 0 0 0 93.516 51.065 A 1.796 1.796 0 0 0 94.182 51.338 A 3.787 3.787 0 0 0 94.797 51.405 A 3.451 3.451 0 0 0 94.883 51.406 A 4.055 4.055 0 0 0 96.493 51.063 A 5.223 5.223 0 0 0 97.122 50.74 A 10.742 10.742 0 0 0 98.429 49.81 A 13.575 13.575 0 0 0 99.309 49.014 A 19.959 19.959 0 0 0 100.757 47.42 A 23.555 23.555 0 0 0 101.394 46.604 A 56.856 56.856 0 0 0 103.325 43.853 A 107.489 107.489 0 0 0 104.214 42.481 A 91.188 91.188 0 0 0 105.034 41.17 Q 105.71 40.068 106.259 39.206 A 86.959 86.959 0 0 1 106.436 38.931 L 107.7 39.888 A 15.112 15.112 0 0 0 107.362 40.41 Q 106.969 41.04 106.487 41.922 A 51.01 51.01 0 0 1 105.731 43.255 A 66.862 66.862 0 0 1 104.863 44.69 A 50.579 50.579 0 0 1 103.373 46.949 A 57.088 57.088 0 0 1 102.83 47.715 Q 101.719 49.253 100.403 50.484 A 12.493 12.493 0 0 1 97.549 52.5 Q 96.011 53.286 94.268 53.286 Q 93.311 53.286 92.456 52.996 A 4.062 4.062 0 0 1 90.952 52.09 A 4.249 4.249 0 0 1 90.078 50.898 A 5.052 5.052 0 0 1 89.927 50.569 A 4.721 4.721 0 0 1 89.636 49.532 Q 89.556 49.052 89.551 48.508 A 7.955 7.955 0 0 1 89.551 48.433 A 9.392 9.392 0 0 1 89.811 46.279 A 11.902 11.902 0 0 1 90.217 44.929 A 29.716 29.716 0 0 1 91.773 41.392 A 48.885 48.885 0 0 1 92.856 39.417 A 39.564 39.564 0 0 1 93.55 38.264 Q 94.282 37.095 94.69 36.309 A 11.623 11.623 0 0 0 94.849 35.991 A 5.48 5.48 0 0 0 95.074 35.456 Q 95.259 34.935 95.259 34.522 Q 95.259 34.077 94.968 33.735 A 4.041 4.041 0 0 0 94.6 33.358 A 5.298 5.298 0 0 0 94.251 33.069 A 97.325 97.325 0 0 1 93.591 32.563 A 110.599 110.599 0 0 1 93.362 32.385 A 3.139 3.139 0 0 1 92.593 31.514 A 499.554 499.554 0 0 1 90.85 34.282 A 106.335 106.335 0 0 0 90.029 35.551 A 143.643 143.643 0 0 0 89.141 36.965 Q 88.218 38.452 87.363 39.888 M 268.174 38.931 L 275.488 27.481 L 276.48 27.993 A 25.994 25.994 0 0 1 276.44 28.111 Q 276.376 28.3 276.269 28.61 A 170.054 170.054 0 0 1 276.257 28.643 A 2.833 2.833 0 0 0 276.109 29.41 A 3.296 3.296 0 0 0 276.104 29.6 A 2.309 2.309 0 0 0 276.223 30.335 Q 276.343 30.693 276.719 31.001 Q 277.766 31.943 278.472 32.555 A 50.744 50.744 0 0 0 278.872 32.898 A 25.95 25.95 0 0 1 279.239 33.214 Q 279.748 33.663 280.017 33.958 A 4.193 4.193 0 0 1 280.18 34.146 Q 280.397 34.415 280.462 34.607 A 1.441 1.441 0 0 1 280.513 34.82 Q 280.532 34.93 280.541 35.06 A 3.364 3.364 0 0 1 280.547 35.274 A 3.097 3.097 0 0 1 280.528 35.605 Q 280.496 35.902 280.41 36.265 Q 280.274 36.846 279.949 37.666 A 16.785 16.785 0 0 1 279.672 38.322 Q 279.413 38.903 279.06 39.597 Q 278.672 40.361 278.147 41.294 A 71.791 71.791 0 0 1 277.642 42.178 Q 277.129 43.067 276.633 43.972 Q 276.138 44.878 275.745 45.801 Q 275.352 46.724 275.112 47.647 A 7.495 7.495 0 0 0 274.901 48.828 A 6.383 6.383 0 0 0 274.873 49.424 A 3.657 3.657 0 0 0 274.895 49.836 Q 274.937 50.207 275.061 50.466 A 1.688 1.688 0 0 0 275.26 50.789 A 1.297 1.297 0 0 0 275.557 51.065 A 1.796 1.796 0 0 0 276.223 51.338 A 3.787 3.787 0 0 0 276.838 51.405 A 3.451 3.451 0 0 0 276.924 51.406 A 4.055 4.055 0 0 0 278.534 51.063 A 5.223 5.223 0 0 0 279.163 50.74 A 10.742 10.742 0 0 0 280.47 49.81 A 13.575 13.575 0 0 0 281.35 49.014 A 19.959 19.959 0 0 0 282.798 47.42 A 23.555 23.555 0 0 0 283.435 46.604 A 56.856 56.856 0 0 0 285.366 43.853 A 107.489 107.489 0 0 0 286.255 42.481 A 91.188 91.188 0 0 0 287.075 41.17 Q 287.751 40.068 288.3 39.206 A 86.959 86.959 0 0 1 288.477 38.931 L 289.741 39.888 A 15.112 15.112 0 0 0 289.403 40.41 Q 289.01 41.04 288.528 41.922 A 51.01 51.01 0 0 1 287.772 43.255 A 66.862 66.862 0 0 1 286.904 44.69 A 50.579 50.579 0 0 1 285.414 46.949 A 57.088 57.088 0 0 1 284.871 47.715 Q 283.76 49.253 282.444 50.484 A 12.493 12.493 0 0 1 279.59 52.5 Q 278.052 53.286 276.309 53.286 Q 275.352 53.286 274.497 52.996 A 4.062 4.062 0 0 1 272.993 52.09 A 4.249 4.249 0 0 1 272.119 50.898 A 5.052 5.052 0 0 1 271.968 50.569 A 4.721 4.721 0 0 1 271.677 49.532 Q 271.597 49.052 271.592 48.508 A 7.955 7.955 0 0 1 271.592 48.433 A 9.392 9.392 0 0 1 271.852 46.279 A 11.902 11.902 0 0 1 272.258 44.929 A 29.716 29.716 0 0 1 273.814 41.392 A 48.885 48.885 0 0 1 274.897 39.417 A 39.564 39.564 0 0 1 275.591 38.264 Q 276.323 37.095 276.731 36.309 A 11.623 11.623 0 0 0 276.89 35.991 A 5.48 5.48 0 0 0 277.115 35.456 Q 277.3 34.935 277.3 34.522 Q 277.3 34.077 277.009 33.735 A 4.041 4.041 0 0 0 276.641 33.358 A 5.298 5.298 0 0 0 276.292 33.069 A 97.325 97.325 0 0 1 275.632 32.563 A 110.599 110.599 0 0 1 275.403 32.385 A 3.139 3.139 0 0 1 274.634 31.514 A 499.554 499.554 0 0 1 272.891 34.282 A 106.335 106.335 0 0 0 272.07 35.551 A 143.643 143.643 0 0 0 271.182 36.965 Q 270.259 38.452 269.404 39.888 M 369.448 28.472 L 370.542 28.95 Q 370.202 29.631 369.651 30.642 A 115.733 115.733 0 0 1 369.295 31.292 A 227.392 227.392 0 0 0 368.461 32.813 A 291.06 291.06 0 0 0 367.569 34.47 A 166.938 166.938 0 0 0 366.165 37.156 A 188.631 188.631 0 0 0 365.689 38.093 A 67.548 67.548 0 0 0 364.359 40.881 A 59.464 59.464 0 0 0 363.963 41.785 A 37.495 37.495 0 0 0 363.266 43.524 A 28.958 28.958 0 0 0 362.715 45.151 A 13.996 13.996 0 0 0 362.443 46.176 Q 362.33 46.681 362.279 47.125 A 6.073 6.073 0 0 0 362.236 47.818 A 3.748 3.748 0 0 0 362.262 48.274 Q 362.339 48.898 362.647 49.168 Q 362.993 49.47 363.582 49.518 A 2.834 2.834 0 0 0 363.809 49.526 A 4.45 4.45 0 0 0 365.788 49.05 A 5.87 5.87 0 0 0 366.543 48.604 Q 367.866 47.688 369.171 46.217 A 20.258 20.258 0 0 0 369.192 46.194 A 27.986 27.986 0 0 0 370.777 44.223 A 34.769 34.769 0 0 0 371.773 42.793 Q 373.037 40.879 374.302 38.931 L 375.532 39.888 A 87.036 87.036 0 0 1 374.477 41.725 A 109.452 109.452 0 0 1 373.294 43.682 A 26.822 26.822 0 0 1 370.508 47.424 A 15.251 15.251 0 0 1 367.693 49.911 A 14.039 14.039 0 0 1 367.124 50.278 A 7.59 7.59 0 0 1 363.091 51.406 A 5.459 5.459 0 0 1 361.821 51.268 A 3.538 3.538 0 0 1 359.946 50.176 Q 358.853 48.945 358.853 46.997 A 11.078 11.078 0 0 1 359.246 44.13 A 14.48 14.48 0 0 1 359.912 42.212 A 31.533 31.533 0 0 1 362.125 37.961 A 35.376 35.376 0 0 1 362.561 37.273 Q 364.151 34.829 366.013 32.573 Q 367.876 30.318 369.448 28.472 Z M 152.612 41.939 Q 153.057 41.221 153.706 40.11 A 146.419 146.419 0 0 1 154.719 38.405 A 162.588 162.588 0 0 1 155.073 37.82 A 229.195 229.195 0 0 1 156.303 35.822 A 206.71 206.71 0 0 1 156.475 35.547 Q 156.945 34.795 157.334 34.205 A 38.94 38.94 0 0 1 157.671 33.701 A 3.383 3.383 0 0 0 157.666 33.524 Q 157.655 33.322 157.622 33.024 A 20.079 20.079 0 0 0 157.586 32.71 Q 157.5 32.026 157.124 31.326 A 2.915 2.915 0 0 0 156.521 30.56 A 4.011 4.011 0 0 0 155.928 30.112 A 2.95 2.95 0 0 0 155.171 29.785 Q 154.806 29.681 154.366 29.635 A 7.064 7.064 0 0 0 153.638 29.6 A 8.218 8.218 0 0 0 152.588 29.671 Q 152.059 29.739 151.479 29.873 A 14.046 14.046 0 0 0 151.262 29.924 A 10.982 10.982 0 0 0 149.904 30.36 Q 149.225 30.625 148.506 30.994 A 17.641 17.641 0 0 0 148.46 31.018 A 16.26 16.26 0 0 0 146.808 32.008 A 21.548 21.548 0 0 0 145.401 33.052 A 19.815 19.815 0 0 0 143.73 34.569 A 26.555 26.555 0 0 0 142.256 36.196 A 28.128 28.128 0 0 0 140.054 39.215 A 21.932 21.932 0 0 0 138.616 41.887 A 17.298 17.298 0 0 0 137.835 43.949 Q 137.334 45.6 137.334 47.031 Q 137.334 48.39 137.766 49.316 A 3.267 3.267 0 0 0 138.223 50.039 A 2.889 2.889 0 0 0 139.979 51.033 A 4.309 4.309 0 0 0 140.752 51.099 A 7.634 7.634 0 0 0 144.273 50.261 A 13.522 13.522 0 0 0 147.169 48.256 A 15.134 15.134 0 0 0 147.349 48.091 A 27.121 27.121 0 0 0 149.92 45.336 A 29.798 29.798 0 0 0 150.083 45.134 Q 151.382 43.511 152.612 41.939 Z M 116.519 26.421 A 56.818 56.818 0 0 0 120.809 22.747 A 45.673 45.673 0 0 0 123.645 19.807 A 56.377 56.377 0 0 0 126.371 16.47 A 41.436 41.436 0 0 0 128.567 13.262 A 36.409 36.409 0 0 0 130.061 10.599 Q 130.894 8.943 131.404 7.434 Q 131.998 5.673 132.203 4.288 A 9.28 9.28 0 0 0 132.31 2.94 Q 132.31 2.458 132.068 2.157 A 0.99 0.99 0 0 0 132.036 2.119 Q 131.763 1.812 131.182 1.812 Q 130.169 1.812 129.113 2.612 A 6.655 6.655 0 0 0 128.584 3.059 A 9.909 9.909 0 0 0 127.727 3.984 Q 126.87 5.022 125.887 6.631 A 40.187 40.187 0 0 0 125.559 7.178 A 57.119 57.119 0 0 0 124.337 9.37 Q 123.115 11.67 121.68 14.766 A 310.933 310.933 0 0 0 119.929 18.616 Q 119.153 20.35 118.3 22.301 A 642.638 642.638 0 0 0 116.519 26.421 Z M 384.385 26.421 A 56.818 56.818 0 0 0 388.675 22.747 A 45.673 45.673 0 0 0 391.511 19.807 A 56.377 56.377 0 0 0 394.237 16.47 A 41.436 41.436 0 0 0 396.433 13.262 A 36.409 36.409 0 0 0 397.927 10.599 Q 398.761 8.943 399.27 7.434 Q 399.865 5.673 400.069 4.288 A 9.28 9.28 0 0 0 400.176 2.94 Q 400.176 2.458 399.934 2.157 A 0.99 0.99 0 0 0 399.902 2.119 Q 399.629 1.812 399.048 1.812 Q 398.035 1.812 396.979 2.612 A 6.655 6.655 0 0 0 396.45 3.059 A 9.909 9.909 0 0 0 395.593 3.984 Q 394.737 5.022 393.753 6.631 A 40.187 40.187 0 0 0 393.425 7.178 A 57.119 57.119 0 0 0 392.204 9.37 Q 390.982 11.67 389.546 14.766 A 310.933 310.933 0 0 0 387.795 18.616 Q 387.019 20.35 386.167 22.301 A 642.638 642.638 0 0 0 384.385 26.421 Z M 315.034 42.417 A 18.925 18.925 0 0 0 318.575 41.712 A 17.125 17.125 0 0 0 319.341 41.46 A 19.559 19.559 0 0 0 322.283 40.14 A 17.416 17.416 0 0 0 323.032 39.7 A 19.96 19.96 0 0 0 325.321 38.049 A 17.488 17.488 0 0 0 326.023 37.427 Q 327.339 36.196 328.228 34.932 A 14.814 14.814 0 0 0 329.003 33.712 A 10.842 10.842 0 0 0 329.595 32.505 A 7.497 7.497 0 0 0 329.886 31.667 Q 330.073 30.997 330.073 30.42 A 2.786 2.786 0 0 0 330.009 29.805 Q 329.895 29.301 329.578 28.95 A 1.749 1.749 0 0 0 329.126 28.586 A 1.485 1.485 0 0 0 328.399 28.403 Q 326.895 28.403 325.015 29.48 Q 323.194 30.523 321.373 32.336 A 24.45 24.45 0 0 0 321.255 32.454 A 25.59 25.59 0 0 0 318.992 35.085 A 31.368 31.368 0 0 0 317.717 36.914 A 25.653 25.653 0 0 0 315.034 42.417 Z M 254.81 30.454 A 1.551 1.551 0 0 0 254.267 29.259 A 2.24 2.24 0 0 0 254.075 29.104 A 4.46 4.46 0 0 0 253.347 28.683 Q 252.971 28.508 252.523 28.37 A 8.44 8.44 0 0 0 252.161 28.267 Q 250.982 27.959 249.495 27.805 A 37.481 37.481 0 0 0 246.47 27.617 A 9.62 9.62 0 0 0 247.773 29.169 A 8.896 8.896 0 0 0 247.923 29.309 A 10.701 10.701 0 0 0 249.156 30.287 A 9.413 9.413 0 0 0 249.58 30.557 A 8.292 8.292 0 0 0 250.871 31.191 A 7.327 7.327 0 0 0 251.306 31.343 A 6.146 6.146 0 0 0 252.247 31.562 A 4.904 4.904 0 0 0 252.964 31.616 A 4.022 4.022 0 0 0 253.447 31.589 Q 253.997 31.523 254.325 31.292 A 1.213 1.213 0 0 0 254.348 31.275 A 1.356 1.356 0 0 0 254.601 31.036 A 0.906 0.906 0 0 0 254.81 30.454 Z M 356.289 36.88 Q 356.973 35.342 357.366 33.684 A 14.987 14.987 0 0 0 357.684 31.879 A 12.004 12.004 0 0 0 357.759 30.557 A 9.865 9.865 0 0 0 357.748 30.08 Q 357.726 29.617 357.656 29.314 A 1.709 1.709 0 0 0 357.588 29.087 A 5.052 5.052 0 0 0 357.526 28.934 Q 357.428 28.702 357.356 28.614 A 0.202 0.202 0 0 0 357.315 28.574 A 0.05 0.05 0 0 0 357.295 28.581 Q 357.236 28.613 357.041 28.779 A 1.315 1.315 0 0 0 356.895 28.93 Q 356.716 29.142 356.511 29.514 A 3.728 3.728 0 0 0 356.32 29.927 Q 356.232 30.147 356.152 30.411 A 9.479 9.479 0 0 0 355.999 30.984 Q 355.777 31.924 355.777 33.394 A 13.67 13.67 0 0 0 355.823 34.502 A 16.398 16.398 0 0 0 355.896 35.205 A 8.787 8.787 0 0 0 356.03 35.997 Q 356.135 36.476 356.289 36.88 Z M 376.804 22.226 A 3.043 3.043 0 0 0 376.934 21.362 A 1.579 1.579 0 0 0 376.752 20.626 A 2.064 2.064 0 0 0 376.421 20.166 A 2.095 2.095 0 0 0 376.373 20.116 A 1.616 1.616 0 0 0 375.191 19.619 A 2.037 2.037 0 0 0 373.858 20.098 Q 373.277 20.576 372.866 21.243 Q 372.456 21.909 372.251 22.661 Q 372.123 23.131 372.075 23.521 A 3.598 3.598 0 0 0 372.046 23.96 A 2.163 2.163 0 0 0 372.073 24.309 A 1.614 1.614 0 0 0 372.354 25.003 A 0.976 0.976 0 0 0 372.86 25.375 A 1.257 1.257 0 0 0 373.242 25.43 A 2.328 2.328 0 0 0 373.902 25.333 A 2.923 2.923 0 0 0 374.541 25.054 A 4.944 4.944 0 0 0 375.72 24.097 A 5.184 5.184 0 0 0 376.592 22.781 A 4.003 4.003 0 0 0 376.804 22.226 Z M 54.141 27.583 A 0.812 0.812 0 0 0 53.748 27.696 Q 53.458 27.857 53.136 28.244 A 5.504 5.504 0 0 0 52.825 28.66 Q 52.325 29.392 51.755 30.431 A 39.065 39.065 0 0 0 51.201 31.48 Q 52.261 31.069 52.91 30.625 A 6.714 6.714 0 0 0 53.393 30.264 Q 53.712 30 53.936 29.736 A 3.127 3.127 0 0 0 54.219 29.348 Q 54.36 29.117 54.436 28.887 A 1.91 1.91 0 0 0 54.448 28.848 A 3.141 3.141 0 0 0 54.563 28.332 A 2.608 2.608 0 0 0 54.585 27.993 Q 54.585 27.858 54.541 27.771 A 0.255 0.255 0 0 0 54.448 27.669 Q 54.312 27.583 54.141 27.583 Z M 120.894 39.751 Q 120.723 39.375 120.33 39.085 Q 119.937 38.794 119.458 38.794 A 4.058 4.058 0 0 0 118.527 38.897 A 3.232 3.232 0 0 0 117.715 39.204 A 3.43 3.43 0 0 0 117.431 39.376 Q 117.158 39.562 117.044 39.74 A 0.464 0.464 0 0 0 116.963 39.99 Q 116.963 40.264 117.288 40.349 A 2.777 2.777 0 0 0 117.59 40.412 A 2.035 2.035 0 0 0 117.886 40.435 A 6.752 6.752 0 0 0 118.893 40.362 A 5.553 5.553 0 0 0 119.527 40.23 A 10.533 10.533 0 0 0 120.329 39.977 A 8.452 8.452 0 0 0 120.894 39.751 Z M 388.76 39.751 Q 388.589 39.375 388.196 39.085 Q 387.803 38.794 387.324 38.794 A 4.058 4.058 0 0 0 386.393 38.897 A 3.232 3.232 0 0 0 385.581 39.204 A 3.43 3.43 0 0 0 385.297 39.376 Q 385.024 39.562 384.91 39.74 A 0.464 0.464 0 0 0 384.829 39.99 Q 384.829 40.264 385.154 40.349 A 2.777 2.777 0 0 0 385.456 40.412 A 2.035 2.035 0 0 0 385.752 40.435 A 6.752 6.752 0 0 0 386.759 40.362 A 5.553 5.553 0 0 0 387.393 40.23 A 10.533 10.533 0 0 0 388.195 39.977 A 8.452 8.452 0 0 0 388.76 39.751 Z M 86.133 38.931 L 87.363 39.888 L 86.133 38.931 Z M 268.174 38.931 L 269.404 39.888 L 268.174 38.931 Z" vector-effect="non-scaling-stroke"/></g></svg>